# xmcd
#
# Track frame offsets:
#	183
#	13350
#	26835
#	40833
#	53173
#	67028
#	77645
#	88190
#	102088
#	113713
#	127028
#	144028
#
# Disc length: 2103 seconds
#
# Revision: 0
# Processed by: cddbd v1.5.2PL0 Copyright (c) Steve Scherf et al.
# Submitted via: audiograbber 1.83.01
#
DISCID=9f08350c
DTITLE=Michael Klostermann und seine Musikanten - Freu dich des Lebens
DYEAR=1994
DGENRE=Blasmusik
TTITLE0=Kyrburg Marsch
TTITLE1=Freu dich des Lebens
TTITLE2=Schwarzwälder Kuckuckspolka
TTITLE3=Ein kleines Bild von dir
TTITLE4=Klarinettenperlen
TTITLE5=Wahre Liebe
TTITLE6=Tiroler Adler
TTITLE7=Glückstern-Polka
TTITLE8=Freudentränen
TTITLE9=Frühlingsfest
TTITLE10=Goldene Posaunen
TTITLE11=Zärtlichkeiten
EXTD=
EXTT0=
EXTT1=
EXTT2=
EXTT3=
EXTT4=
EXTT5=
EXTT6=
EXTT7=
EXTT8=
EXTT9=
EXTT10=
EXTT11=
PLAYORDER=
